<svg width="1823" height="296" viewBox="0 0 1823 296" xmlns="http://www.w3.org/2000/svg"><title>stellaroute_logo_white</title><path d="M37.083 211.183a807.87 807.87 0 0 1-1.92-3.147c-10.341-17.05-17.427-32.56-22.057-44.313C4.771 147.665 0 129.017 0 109.127 0 48.857 43.803 0 97.837 0c54.035 0 97.838 48.858 97.838 109.127 0 19.42-4.548 37.655-12.52 53.452-5.67 14.017-13.778 32.2-22.391 45.457C144.699 232.764 104.587 296 98.304 296c-3.426 0-18.14-19.44-34.166-42.998 10.145-6.976 78.336-56.084 68.46-109.131-6.773-36.377-38.17-57.24-39.18-85.373-.864-24.028 39.18-45.955 39.18-45.955s-18.762-4.807-37.431 9.925c-18.67 14.733-21.872 28.54-21.872 36.03 0 36.758 24.67 38.435 20.123 85.373-3.848 39.72-44.06 61.541-56.335 67.312zm184.592 20.723l27.551-30.31c8.975 14.945 24.42 22.417 46.336 22.417 7.305 0 13.045-1 17.22-3 4.174-2 6.261-4.683 6.261-8.05 0-2.948-2.14-5.526-6.418-7.736-4.279-2.21-11.636-4.368-22.072-6.473-23.377-4.63-40.022-10.945-49.937-18.944-9.914-7.998-14.87-18.628-14.87-31.889 0-9.051 2.817-17.576 8.452-25.574 5.636-7.999 14.141-14.471 25.516-19.418 11.376-4.946 25.203-7.42 41.483-7.42 17.95 0 32.613 2.474 43.988 7.42 11.375 4.947 20.611 12.366 27.708 22.26l-27.551 27.152c-5.01-7.367-10.958-12.734-17.846-16.102-6.888-3.368-15.132-5.052-24.733-5.052-7.514 0-13.358 1.158-17.533 3.473-4.174 2.316-6.261 5.157-6.261 8.525 0 3.157 2.14 5.841 6.418 8.051 4.279 2.21 11.74 4.368 22.385 6.473 22.96 4 39.5 9.945 49.623 17.839 10.123 7.893 15.185 18.68 15.185 32.362 0 15.366-6.366 27.838-19.098 37.415-12.732 9.577-31.204 14.366-55.415 14.366-35.9 0-61.364-9.262-76.392-27.785zm278.406 15.787c-5.218 3.578-11.844 6.472-19.88 8.682s-16.124 3.316-24.264 3.316c-18.576 0-32.769-4-42.579-11.998-9.81-7.999-14.819-20.839-15.028-38.52V136.87h-26.924V98.667h26.924V63.305l53.224-14.84v50.202h46.962v38.203h-46.962v63.463c0 14.103 6.888 21.154 20.663 21.154 8.558 0 16.072-2.315 22.542-6.946l5.322 33.152zm159.75-54.622H553.07c1.669 9.893 5.27 17.155 10.8 21.786 5.532 4.63 12.889 6.946 22.073 6.946 7.722 0 14.036-1.474 18.94-4.42 4.906-2.947 8.193-7.262 9.863-12.946l43.205 13.893c-4.383 13.471-12.888 23.732-25.516 30.784-12.628 7.051-28.125 10.577-46.492 10.577-27.343 0-48.267-7.157-62.773-21.47-14.506-14.314-21.759-34.52-21.759-60.621 0-26.1 7.096-46.307 21.29-60.62 14.192-14.314 34.334-21.47 60.424-21.47 25.255 0 44.614 6.998 58.076 20.996 13.463 13.997 20.194 33.625 20.194 58.884 0 7.157-.522 13.05-1.566 17.68zm-107.074-29.048h58.86c-2.505-20.628-12.107-30.941-28.804-30.941-16.907 0-26.925 10.313-30.056 30.941zm177.282 37.888c0 7.157 1.043 12.209 3.13 15.156 2.088 2.947 5.845 4.42 11.271 4.42 5.01 0 10.332-.947 15.967-2.842l-3.443 33.152c-3.757 2.316-8.662 4.21-14.715 5.684-6.053 1.473-12.002 2.21-17.846 2.21-16.697 0-28.803-3.947-36.317-11.84-7.514-7.894-11.27-20.576-11.27-38.046V31.73h53.223v170.18zm88.68 0c0 7.157 1.043 12.209 3.13 15.156 2.088 2.947 5.844 4.42 11.271 4.42 5.01 0 10.332-.947 15.967-2.842l-3.444 33.152c-3.757 2.316-8.661 4.21-14.714 5.684-6.053 1.473-12.002 2.21-17.846 2.21-16.698 0-28.803-3.947-36.317-11.84-7.514-7.894-11.271-20.576-11.271-38.046V31.73h53.224v170.18zm197.631 22.733l-4.07 29.995c-6.053 3.368-13.15 5.052-21.29 5.052-22.541 0-36.003-8.104-40.387-24.312-9.392 16.208-27.968 24.312-55.728 24.312-15.654 0-27.655-3.368-36.004-10.104-8.349-6.735-12.523-16.523-12.523-29.363 0-13.471 4.748-24.364 14.245-32.678 9.497-8.315 25.098-14.682 46.805-19.102l35.378-6.946v-5.684c0-7.156-1.982-12.84-5.948-17.05-3.966-4.209-9.392-6.314-16.28-6.314-7.932 0-14.402 1.895-19.411 5.683-5.01 3.79-8.245 9.999-9.706 18.629l-43.205-12.63c2.714-15.365 10.228-27.31 22.542-35.835 12.315-8.525 28.908-12.788 49.78-12.788 24.42 0 42.996 5.052 55.728 15.156 12.732 10.103 19.098 25.258 19.098 45.465v57.464c0 8.209 3.757 12.313 11.27 12.313 3.966 0 7.202-.42 9.706-1.263zm-82.34-5.84c5.844-4.105 8.766-9.525 8.766-16.261v-13.577l-25.359 6c-6.68 1.683-11.427 3.735-14.245 6.156-2.818 2.42-4.227 5.841-4.227 10.261 0 4.42 1.357 7.789 4.07 10.104 2.714 2.315 6.47 3.473 11.271 3.473 7.305 0 13.88-2.052 19.724-6.157zm203.267-119.822l-5.635 45.466c-2.087-1.263-4.905-2.368-8.453-3.315-3.548-.947-7.305-1.421-11.271-1.421-10.019 0-18.367 3.21-25.046 9.63-6.68 6.42-10.02 15.629-10.02 27.627v79.564h-53.223V98.667h46.962l2.192 34.099c3.757-11.998 9.653-21.207 17.689-27.627 8.036-6.42 18.002-9.63 29.899-9.63 7.097 0 12.732 1.158 16.906 3.473zm141.434 18.155c14.506 14.419 21.76 34.573 21.76 60.463s-7.254 46.044-21.76 60.463c-14.506 14.418-34.804 21.628-60.894 21.628-26.09 0-46.388-7.21-60.894-21.628-14.506-14.419-21.759-34.573-21.759-60.463s7.253-46.044 21.76-60.463c14.505-14.418 34.803-21.628 60.893-21.628 26.09 0 46.388 7.21 60.894 21.628zm-83.122 26.995c-4.801 6.946-7.201 18.102-7.201 33.468 0 15.366 2.4 26.522 7.2 33.468 4.801 6.946 12.21 10.419 22.23 10.419 10.018 0 17.427-3.473 22.228-10.42 4.8-6.945 7.2-18.101 7.2-33.467s-2.4-26.522-7.2-33.468c-4.8-6.946-12.21-10.419-22.229-10.419-10.018 0-17.428 3.473-22.228 10.42zm277.78-45.465v157.866h-47.588l-1.566-29.363c-9.81 21.68-27.864 32.52-54.163 32.52-16.697 0-29.794-4.472-39.291-13.418-9.497-8.946-14.245-22.996-14.245-42.15V98.667h53.223v91.878c0 10.314 1.774 17.576 5.323 21.786 3.548 4.21 8.975 6.314 16.28 6.314 8.766 0 15.758-3 20.976-8.998 5.218-5.999 7.827-15.103 7.827-27.311v-83.67h53.224zm138.146 149.026c-5.218 3.578-11.845 6.472-19.88 8.682-8.036 2.21-16.124 3.316-24.264 3.316-18.576 0-32.77-4-42.579-11.998-9.81-7.999-14.82-20.839-15.028-38.52V136.87h-26.925V98.667h26.925V63.305l53.224-14.84v50.202h46.962v38.203h-46.962v63.463c0 14.103 6.888 21.154 20.663 21.154 8.558 0 16.071-2.315 22.542-6.946l5.322 33.152zm159.75-54.622h-106.761c1.67 9.893 5.27 17.155 10.801 21.786 5.531 4.63 12.889 6.946 22.072 6.946 7.723 0 14.037-1.474 18.942-4.42 4.905-2.947 8.192-7.262 9.862-12.946l43.205 13.893c-4.383 13.471-12.889 23.732-25.516 30.784-12.628 7.051-28.125 10.577-46.493 10.577-27.342 0-48.266-7.157-62.772-21.47-14.506-14.314-21.76-34.52-21.76-60.621 0-26.1 7.097-46.307 21.29-60.62 14.193-14.314 34.335-21.47 60.425-21.47 25.255 0 44.613 6.998 58.076 20.996 13.462 13.997 20.194 33.625 20.194 58.884 0 7.157-.522 13.05-1.566 17.68zm-107.074-29.048h58.859c-2.505-20.628-12.106-30.941-28.803-30.941-16.907 0-26.925 10.313-30.056 30.941z" fill="#FFF" fill-rule="evenodd"/></svg>