<svg width="1823" height="296" viewBox="0 0 1823 296" xmlns="http://www.w3.org/2000/svg"><title>stellaroute_logo_white</title><path d="M37.083 211.183a807.87 807.87 0 0 1-1.92-3.147c-10.34-17.05-17.427-32.56-22.057-44.313C4.77 147.665 0 129.017 0 109.127 0 48.857 43.803 0 97.837 0c54.035 0 97.838 48.858 97.838 109.127 0 19.42-4.548 37.655-12.52 53.452-5.67 14.015-13.778 32.2-22.39 45.455-16.067 24.73-56.18 87.965-62.46 87.965-3.428 0-18.14-19.44-34.168-42.998 10.145-6.976 78.336-56.084 68.46-109.13-6.773-36.378-38.17-57.24-39.18-85.374-.864-24.028 39.18-45.955 39.18-45.955s-18.762-4.807-37.43 9.925c-18.67 14.733-21.873 28.54-21.873 36.03 0 36.758 24.67 38.435 20.123 85.373-3.848 39.72-44.06 61.543-56.335 67.314zm184.592 20.723l27.55-30.31c8.976 14.945 24.42 22.417 46.337 22.417 7.305 0 13.045-1 17.22-3 4.174-2 6.26-4.683 6.26-8.05 0-2.948-2.14-5.526-6.417-7.736-4.28-2.21-11.636-4.368-22.072-6.473-23.377-4.63-40.022-10.945-49.937-18.944-9.914-7.998-14.87-18.628-14.87-31.89 0-9.05 2.817-17.575 8.452-25.573 5.636-8 14.14-14.47 25.516-19.418 11.376-4.948 25.203-7.42 41.483-7.42 17.95 0 32.613 2.472 43.988 7.42 11.375 4.945 20.61 12.364 27.708 22.26l-27.55 27.15c-5.01-7.367-10.96-12.734-17.847-16.1-6.888-3.37-15.132-5.054-24.733-5.054-7.514 0-13.358 1.158-17.533 3.473-4.174 2.315-6.26 5.156-6.26 8.524 0 3.157 2.14 5.84 6.417 8.05 4.28 2.21 11.74 4.37 22.385 6.474 22.96 4 39.5 9.944 49.623 17.838 10.123 7.893 15.185 18.68 15.185 32.362 0 15.366-6.366 27.838-19.098 37.415-12.732 9.577-31.204 14.366-55.415 14.366-35.9 0-61.364-9.26-76.392-27.785zm278.406 15.787c-5.216 3.578-11.842 6.472-19.88 8.682s-16.122 3.316-24.262 3.316c-18.576 0-32.77-4-42.58-11.996-9.81-8-14.818-20.84-15.027-38.52V136.87h-26.923V98.667h26.924V63.305l53.225-14.84v50.202h46.962v38.203h-46.962v63.463c0 14.103 6.888 21.154 20.663 21.154 8.558 0 16.072-2.315 22.542-6.946l5.32 33.154zm159.75-54.622H553.07c1.67 9.895 5.27 17.157 10.8 21.788 5.532 4.63 12.89 6.946 22.073 6.946 7.722 0 14.036-1.474 18.94-4.42 4.906-2.947 8.193-7.262 9.863-12.946l43.205 13.893c-4.38 13.47-12.886 23.733-25.514 30.785-12.628 7.05-28.125 10.577-46.492 10.577-27.343 0-48.267-7.156-62.773-21.47-14.505-14.313-21.76-34.52-21.76-60.62 0-26.1 7.098-46.307 21.29-60.62 14.194-14.314 34.336-21.47 60.426-21.47 25.255 0 44.614 6.998 58.076 20.996 13.464 13.997 20.195 33.625 20.195 58.884 0 7.157-.522 13.05-1.566 17.68zM552.76 164.025h58.86c-2.505-20.628-12.107-30.94-28.804-30.94-16.907 0-26.925 10.312-30.056 30.94zM730.04 201.91c0 7.158 1.042 12.21 3.13 15.157 2.087 2.947 5.844 4.42 11.27 4.42 5.01 0 10.332-.947 15.967-2.842l-3.443 33.152c-3.757 2.316-8.662 4.21-14.715 5.684-6.055 1.475-12.004 2.21-17.848 2.21-16.697 0-28.803-3.945-36.317-11.84-7.514-7.892-11.27-20.574-11.27-38.044V31.73h53.223v170.18zm88.68 0c0 7.158 1.042 12.21 3.13 15.157 2.087 2.947 5.843 4.42 11.27 4.42 5.01 0 10.332-.947 15.967-2.842l-3.444 33.152c-3.757 2.316-8.66 4.21-14.714 5.684-6.055 1.475-12.004 2.21-17.848 2.21-16.698 0-28.803-3.945-36.317-11.84-7.514-7.892-11.27-20.574-11.27-38.044V31.73h53.223v170.18zm197.63 22.734l-4.07 29.995c-6.053 3.366-13.15 5.05-21.29 5.05-22.54 0-36.003-8.104-40.387-24.31-9.392 16.206-27.968 24.31-55.728 24.31-15.654 0-27.655-3.368-36.004-10.104-8.347-6.735-12.52-16.523-12.52-29.363 0-13.47 4.747-24.364 14.244-32.678 9.497-8.315 25.098-14.682 46.805-19.102l35.377-6.946v-5.684c0-7.156-1.982-12.84-5.948-17.05-3.967-4.21-9.393-6.314-16.28-6.314-7.933 0-14.403 1.894-19.41 5.682-5.01 3.79-8.247 10-9.708 18.63l-43.204-12.63c2.714-15.366 10.228-27.31 22.542-35.836 12.315-8.525 28.908-12.788 49.78-12.788 24.42 0 42.996 5.05 55.728 15.155 12.732 10.103 19.098 25.258 19.098 45.465v57.464c0 8.21 3.757 12.313 11.27 12.313 3.966 0 7.202-.42 9.706-1.263zm-82.34-5.84c5.844-4.105 8.766-9.525 8.766-16.26v-13.578l-25.36 6c-6.68 1.683-11.426 3.735-14.244 6.156-2.818 2.42-4.227 5.84-4.227 10.26s1.357 7.79 4.07 10.105c2.714 2.315 6.47 3.473 11.27 3.473 7.306 0 13.88-2.052 19.725-6.157zm203.267-119.822l-5.635 45.466c-2.087-1.263-4.905-2.368-8.453-3.315-3.55-.947-7.307-1.42-11.273-1.42-10.02 0-18.367 3.21-25.046 9.63-6.68 6.42-10.02 15.628-10.02 27.626v79.562h-53.222V98.667h46.96l2.193 34.1c3.758-12 9.654-21.208 17.69-27.628 8.036-6.42 18-9.63 29.9-9.63 7.097 0 12.732 1.156 16.906 3.47zm141.434 18.155c14.508 14.42 21.76 34.573 21.76 60.463s-7.252 46.044-21.76 60.463c-14.504 14.418-34.802 21.628-60.892 21.628-26.09 0-46.388-7.21-60.894-21.626-14.506-14.42-21.76-34.573-21.76-60.463s7.254-46.043 21.76-60.462c14.506-14.418 34.804-21.628 60.894-21.628 26.09 0 46.388 7.21 60.894 21.627zm-83.12 26.995c-4.8 6.946-7.2 18.102-7.2 33.468 0 15.366 2.4 26.522 7.2 33.468 4.8 6.946 12.21 10.42 22.23 10.42 10.017 0 17.426-3.474 22.227-10.42 4.8-6.946 7.2-18.102 7.2-33.468s-2.4-26.522-7.2-33.468c-4.8-6.946-12.21-10.42-22.23-10.42-10.017 0-17.427 3.474-22.227 10.42zm277.78-45.465v157.866h-47.59l-1.564-29.363c-9.81 21.68-27.864 32.52-54.163 32.52-16.697 0-29.794-4.472-39.29-13.418-9.498-8.946-14.246-22.996-14.246-42.15V98.667h53.223v91.878c0 10.314 1.773 17.576 5.322 21.786 3.548 4.21 8.975 6.316 16.28 6.316 8.766 0 15.758-3 20.976-8.998 5.218-6 7.827-15.103 7.827-27.31v-83.67h53.224zm138.146 149.026c-5.218 3.578-11.845 6.472-19.88 8.682-8.036 2.21-16.124 3.316-24.264 3.316-18.575 0-32.77-4-42.578-11.996-9.81-8-14.82-20.84-15.028-38.52V136.87h-26.925V98.667h26.925V63.305l53.224-14.84v50.202h46.96v38.203h-46.96v63.463c0 14.103 6.887 21.154 20.662 21.154 8.56 0 16.072-2.315 22.543-6.946l5.322 33.154zm159.75-54.622h-106.76c1.67 9.895 5.27 17.157 10.8 21.788 5.53 4.63 12.89 6.946 22.072 6.946 7.723 0 14.037-1.474 18.942-4.42 4.904-2.947 8.19-7.262 9.86-12.946l43.206 13.893c-4.383 13.47-12.89 23.733-25.516 30.785-12.628 7.05-28.125 10.577-46.493 10.577-27.342 0-48.266-7.156-62.772-21.47-14.506-14.313-21.76-34.52-21.76-60.62 0-26.1 7.097-46.307 21.29-60.62 14.193-14.314 34.335-21.47 60.425-21.47 25.255 0 44.613 6.998 58.076 20.996 13.462 13.997 20.194 33.625 20.194 58.884 0 7.157-.522 13.05-1.566 17.68zm-107.074-29.046h58.86c-2.505-20.628-12.106-30.94-28.803-30.94-16.908 0-26.926 10.312-30.057 30.94z" fill="#FFF" fill-rule="evenodd"/></svg>