<svg xmlns="http://www.w3.org/2000/svg" xmlns:xlink="http://www.w3.org/1999/xlink" viewBox="1149 448 400 200">
  <defs>
    <style>
      .cls-1 {
        clip-path: url(#clip-no-image-400x200);
      }

      .cls-2 {
        fill: #eee;
      }

      .cls-3 {
        fill: none;
        stroke: #ccc;
        stroke-width: 2px;
      }

      .cls-4 {
        fill: #ccc;
      }

      .cls-5 {
        fill: #fff;
      }
    </style>
    <clipPath id="clip-no-image-400x200">
      <rect x="1149" y="448" width="400" height="200"/>
    </clipPath>
  </defs>
  <g id="no-image-400x200" class="cls-1">
    <rect class="cls-5" x="1149" y="448" width="400" height="200"/>
    <rect id="Rectangle_8" data-name="Rectangle 8" class="cls-2" width="400" height="300" transform="translate(1149 418)"/>
    <line id="Line_7" data-name="Line 7" class="cls-3" y1="227" x2="454" transform="translate(1131 430)"/>
    <line id="Line_8" data-name="Line 8" class="cls-3" x2="446" y2="225" transform="translate(1131 440)"/>
    <g id="Group_5" data-name="Group 5" transform="translate(1186 428)">
      <rect id="Rectangle_9" data-name="Rectangle 9" class="cls-2" width="149.152" height="110.883" transform="translate(88 65)"/>
      <path id="Path_6" data-name="Path 6" class="cls-4" d="M102.531,24.29H80.72L78.483,15.9a5.435,5.435,0,0,0-5.406-4.1H42.69a5.435,5.435,0,0,0-5.406,4.1L35.046,24.29H13.421A9.231,9.231,0,0,0,4.1,33.611V83.2a9.231,9.231,0,0,0,9.321,9.321h89.3a9.231,9.231,0,0,0,9.321-9.321V33.611A9.636,9.636,0,0,0,102.531,24.29ZM57.976,80.031a23.3,23.3,0,1,1,23.3-23.3A23.311,23.311,0,0,1,57.976,80.031Z" transform="translate(103.525 62.031)"/>
    </g>
  </g>
</svg>
