<?xml version="1.0" encoding="UTF-8"?>
<svg width="1467px" height="2209px" viewBox="0 0 1467 2209" version="1.1" xmlns="http://www.w3.org/2000/svg" xmlns:xlink="http://www.w3.org/1999/xlink">
    <!-- Generator: Sketch 41.2 (35397) - http://www.bohemiancoding.com/sketch -->
    <title>logo_white_plain_svg</title>
    <desc>Created with Sketch.</desc>
    <defs></defs>
    <g id="Page-1" stroke="none" stroke-width="1" fill="none" fill-rule="evenodd">
        <g id="logo_white_plain_svg" fill="#FFFFFF">
            <path d="M943.404598,33.8353101 C1246.22012,134.071784 1467,445.607107 1467,814.395374 C1467,959.323255 1432.90355,1095.4092 1373.13118,1213.30399 C1330.63014,1317.90892 1269.84187,1453.60788 1205.26788,1552.54379 C1084.82304,1737.08127 784.101588,2209.00376 736.992857,2209.00376 C711.313095,2209.00376 601.001174,2063.93275 480.848643,1888.11766 C556.90747,1836.05314 1068.14854,1469.57247 994.100681,1073.68673 C943.322486,802.208767 707.942224,646.513303 700.363187,436.564779 C695.315045,296.725137 867.386296,109.501876 943.404598,33.8353101 Z M919.691131,26.4684389 C860.23398,9.19591657 797.834227,0 733.5,0 C328.399136,0 0,364.617229 0,814.395374 C0,962.835163 35.7689312,1101.9993 98.2591667,1221.84233 C132.971903,1309.55686 186.09035,1425.30353 263.627725,1552.54379 C268.349245,1560.2919 273.146813,1568.1236 278.01334,1576.02808 C370.040927,1532.95917 671.516669,1370.1169 700.363199,1073.68676 C734.451066,723.396064 493.480495,675.390414 549.502998,436.564762 C565.122526,369.978235 634.730514,240.018885 713.475885,167.678341 C788.812588,98.4692184 867.737335,52.4957801 919.69113,26.4684392 Z" id="Oval-16"></path>
        </g>
    </g>
</svg>